<mxfile host="65bd71144e" modified="2021-02-18T12:27:55.345Z" agent="5.0 (Windows NT 10.0; Win64; x64) AppleWebKit/537.36 (KHTML, like Gecko) Code/1.53.2 Chrome/87.0.4280.141 Electron/11.2.1 Safari/537.36" etag="2Hy-8v-pgsvbZGLdcnkj" version="14.2.4" type="embed">
    <diagram id="N8jkDLk7Amj-sibJUGd5" name="Page-1">
        <mxGraphModel dx="1817" dy="575" grid="1" gridSize="10" guides="1" tooltips="1" connect="1" arrows="1" fold="1" page="1" pageScale="1" pageWidth="827" pageHeight="1169" math="0" shadow="0">
            <root>
                <mxCell id="0"/>
                <mxCell id="1" parent="0"/>
                <mxCell id="2" value="任务需要线程处理" style="rounded=1;whiteSpace=wrap;html=1;" parent="1" vertex="1">
                    <mxGeometry x="370" y="60" width="120" height="60" as="geometry"/>
                </mxCell>
                <mxCell id="4" value="是否有空闲线程" style="rhombus;whiteSpace=wrap;html=1;" parent="1" vertex="1">
                    <mxGeometry x="365" y="170" width="130" height="100" as="geometry"/>
                </mxCell>
                <mxCell id="5" value="使用该线程执行任务" style="rounded=1;whiteSpace=wrap;html=1;" parent="1" vertex="1">
                    <mxGeometry x="210" y="320" width="120" height="60" as="geometry"/>
                </mxCell>
                <mxCell id="6" value="创建线程" style="rounded=1;whiteSpace=wrap;html=1;" parent="1" vertex="1">
                    <mxGeometry x="810" y="480" width="120" height="60" as="geometry"/>
                </mxCell>
                <mxCell id="7" value="&lt;span&gt;是否超过最大线程设置数&lt;/span&gt;" style="rhombus;whiteSpace=wrap;html=1;" parent="1" vertex="1">
                    <mxGeometry x="510" y="290" width="240" height="120" as="geometry"/>
                </mxCell>
                <mxCell id="8" value="使用该线程执行任务" style="rounded=1;whiteSpace=wrap;html=1;" parent="1" vertex="1">
                    <mxGeometry x="810" y="600" width="120" height="60" as="geometry"/>
                </mxCell>
                <mxCell id="9" value="排队等待" style="rounded=1;whiteSpace=wrap;html=1;" parent="1" vertex="1">
                    <mxGeometry x="310" y="480" width="120" height="60" as="geometry"/>
                </mxCell>
                <mxCell id="10" value="执行拒绝策略" style="rounded=1;whiteSpace=wrap;html=1;" parent="1" vertex="1">
                    <mxGeometry x="470" y="480" width="120" height="60" as="geometry"/>
                </mxCell>
                <mxCell id="11" value="线程池使用大体流程" style="rounded=1;whiteSpace=wrap;html=1;fillColor=#b1ddf0;strokeColor=#10739e;opacity=50;verticalAlign=top;align=center;fontSize=21;fontColor=#FF3333;" parent="1" vertex="1">
                    <mxGeometry x="50" y="20" width="940" height="670" as="geometry"/>
                </mxCell>
                <mxCell id="12" value="提交任务" style="rounded=1;whiteSpace=wrap;html=1;fontSize=19;opacity=50;align=center;" parent="1" vertex="1">
                    <mxGeometry x="340" y="740" width="120" height="60" as="geometry"/>
                </mxCell>
                <mxCell id="14" value="创建线程执行任务" style="rounded=1;whiteSpace=wrap;html=1;fontSize=19;opacity=50;align=center;" parent="1" vertex="1">
                    <mxGeometry x="590" y="890" width="240" height="60" as="geometry"/>
                </mxCell>
                <mxCell id="21" style="edgeStyle=orthogonalEdgeStyle;rounded=0;orthogonalLoop=1;jettySize=auto;html=1;fontSize=19;fontColor=#f0f0f0;" parent="1" source="22" target="14" edge="1">
                    <mxGeometry relative="1" as="geometry"/>
                </mxCell>
                <mxCell id="24" style="edgeStyle=orthogonalEdgeStyle;rounded=0;orthogonalLoop=1;jettySize=auto;html=1;fontSize=19;fontColor=#f0f0f0;" parent="1" source="15" target="16" edge="1">
                    <mxGeometry relative="1" as="geometry"/>
                </mxCell>
                <mxCell id="15" value="线程数是否超过核心线程数" style="rhombus;whiteSpace=wrap;html=1;rounded=1;fontSize=19;opacity=50;" parent="1" vertex="1">
                    <mxGeometry x="325" y="850" width="145" height="140" as="geometry"/>
                </mxCell>
                <mxCell id="25" style="edgeStyle=orthogonalEdgeStyle;rounded=0;orthogonalLoop=1;jettySize=auto;html=1;fontSize=19;fontColor=#f0f0f0;" parent="1" source="26" target="17" edge="1">
                    <mxGeometry relative="1" as="geometry"/>
                </mxCell>
                <mxCell id="16" value="任务队列没满" style="rhombus;whiteSpace=wrap;html=1;rounded=1;fontSize=19;opacity=50;" parent="1" vertex="1">
                    <mxGeometry x="320" y="1020" width="150" height="140" as="geometry"/>
                </mxCell>
                <mxCell id="17" value="进入队列等待" style="rounded=1;whiteSpace=wrap;html=1;fontSize=19;opacity=50;align=center;" parent="1" vertex="1">
                    <mxGeometry x="590" y="1060" width="200" height="60" as="geometry"/>
                </mxCell>
                <mxCell id="28" style="edgeStyle=orthogonalEdgeStyle;rounded=0;orthogonalLoop=1;jettySize=auto;html=1;fontSize=19;fontColor=#f0f0f0;" parent="1" source="29" target="19" edge="1">
                    <mxGeometry relative="1" as="geometry"/>
                </mxCell>
                <mxCell id="18" value="线程数是否超过最大线程数" style="rhombus;whiteSpace=wrap;html=1;rounded=1;fontSize=19;opacity=50;" parent="1" vertex="1">
                    <mxGeometry x="320" y="1190" width="150" height="140" as="geometry"/>
                </mxCell>
                <mxCell id="19" value="创建线程执行任务" style="rounded=1;whiteSpace=wrap;html=1;fontSize=19;opacity=50;align=center;" parent="1" vertex="1">
                    <mxGeometry x="600" y="1230" width="200" height="60" as="geometry"/>
                </mxCell>
                <mxCell id="20" value="执行拒绝策略" style="rounded=1;whiteSpace=wrap;html=1;fontSize=19;opacity=50;align=center;" parent="1" vertex="1">
                    <mxGeometry x="305" y="1410" width="180" height="60" as="geometry"/>
                </mxCell>
                <mxCell id="22" value="否" style="text;html=1;strokeColor=none;fillColor=none;align=center;verticalAlign=middle;whiteSpace=wrap;rounded=0;fontSize=19;opacity=50;" parent="1" vertex="1">
                    <mxGeometry x="520" y="910" width="20" height="20" as="geometry"/>
                </mxCell>
                <mxCell id="23" style="edgeStyle=orthogonalEdgeStyle;rounded=0;orthogonalLoop=1;jettySize=auto;html=1;fontSize=19;fontColor=#f0f0f0;" parent="1" source="15" target="22" edge="1">
                    <mxGeometry relative="1" as="geometry">
                        <mxPoint x="470" y="920" as="sourcePoint"/>
                        <mxPoint x="590" y="920" as="targetPoint"/>
                    </mxGeometry>
                </mxCell>
                <mxCell id="26" value="是" style="text;html=1;strokeColor=none;fillColor=none;align=center;verticalAlign=middle;whiteSpace=wrap;rounded=0;fontSize=19;opacity=50;" parent="1" vertex="1">
                    <mxGeometry x="510" y="1080" width="20" height="20" as="geometry"/>
                </mxCell>
                <mxCell id="27" style="edgeStyle=orthogonalEdgeStyle;rounded=0;orthogonalLoop=1;jettySize=auto;html=1;fontSize=19;fontColor=#f0f0f0;" parent="1" source="16" target="26" edge="1">
                    <mxGeometry relative="1" as="geometry">
                        <mxPoint x="470" y="1090" as="sourcePoint"/>
                        <mxPoint x="590" y="1090" as="targetPoint"/>
                    </mxGeometry>
                </mxCell>
                <mxCell id="29" value="否" style="text;html=1;strokeColor=none;fillColor=none;align=center;verticalAlign=middle;whiteSpace=wrap;rounded=0;fontSize=19;opacity=50;" parent="1" vertex="1">
                    <mxGeometry x="520" y="1250" width="20" height="20" as="geometry"/>
                </mxCell>
                <mxCell id="30" style="edgeStyle=orthogonalEdgeStyle;rounded=0;orthogonalLoop=1;jettySize=auto;html=1;fontSize=19;fontColor=#f0f0f0;" parent="1" source="18" target="29" edge="1">
                    <mxGeometry relative="1" as="geometry">
                        <mxPoint x="470" y="1260" as="sourcePoint"/>
                        <mxPoint x="600" y="1260" as="targetPoint"/>
                    </mxGeometry>
                </mxCell>
                <mxCell id="31" value="创建线程流程" style="rounded=1;whiteSpace=wrap;html=1;fontSize=19;opacity=50;verticalAlign=top;fontColor=#FF3333;" parent="1" vertex="1">
                    <mxGeometry x="197.5" y="720" width="665" height="640" as="geometry"/>
                </mxCell>
                <mxCell id="33" value="&lt;div&gt;/*&lt;/div&gt;&lt;div&gt;&amp;nbsp; &amp;nbsp; &amp;nbsp; &amp;nbsp; &amp;nbsp;* Proceed in 3 steps:&lt;/div&gt;&lt;div&gt;&amp;nbsp; &amp;nbsp; &amp;nbsp; &amp;nbsp; &amp;nbsp;*&lt;/div&gt;&lt;div&gt;&amp;nbsp; &amp;nbsp; &amp;nbsp; &amp;nbsp; &amp;nbsp;* 1. If fewer than corePoolSize threads are running, try to&lt;/div&gt;&lt;div&gt;&amp;nbsp; &amp;nbsp; &amp;nbsp; &amp;nbsp; &amp;nbsp;* start a new thread with the given command as its first&lt;/div&gt;&lt;div&gt;&amp;nbsp; &amp;nbsp; &amp;nbsp; &amp;nbsp; &amp;nbsp;* task.&amp;nbsp; The call to addWorker atomically checks runState and&lt;/div&gt;&lt;div&gt;&amp;nbsp; &amp;nbsp; &amp;nbsp; &amp;nbsp; &amp;nbsp;* workerCount, and so prevents false alarms that would add&lt;/div&gt;&lt;div&gt;&amp;nbsp; &amp;nbsp; &amp;nbsp; &amp;nbsp; &amp;nbsp;* threads when it shouldn't, by returning false.&lt;/div&gt;&lt;div&gt;&amp;nbsp; &amp;nbsp; &amp;nbsp; &amp;nbsp; &amp;nbsp;*&lt;/div&gt;&lt;div&gt;&amp;nbsp; &amp;nbsp; &amp;nbsp; &amp;nbsp; &amp;nbsp;* 2. If a task can be successfully queued, then we still need&lt;/div&gt;&lt;div&gt;&amp;nbsp; &amp;nbsp; &amp;nbsp; &amp;nbsp; &amp;nbsp;* to double-check whether we should have added a thread&lt;/div&gt;&lt;div&gt;&amp;nbsp; &amp;nbsp; &amp;nbsp; &amp;nbsp; &amp;nbsp;* (because existing ones died since last checking) or that&lt;/div&gt;&lt;div&gt;&amp;nbsp; &amp;nbsp; &amp;nbsp; &amp;nbsp; &amp;nbsp;* the pool shut down since entry into this method. So we&lt;/div&gt;&lt;div&gt;&amp;nbsp; &amp;nbsp; &amp;nbsp; &amp;nbsp; &amp;nbsp;* recheck state and if necessary roll back the enqueuing if&lt;/div&gt;&lt;div&gt;&amp;nbsp; &amp;nbsp; &amp;nbsp; &amp;nbsp; &amp;nbsp;* stopped, or start a new thread if there are none.&lt;/div&gt;&lt;div&gt;&amp;nbsp; &amp;nbsp; &amp;nbsp; &amp;nbsp; &amp;nbsp;*&lt;/div&gt;&lt;div&gt;&amp;nbsp; &amp;nbsp; &amp;nbsp; &amp;nbsp; &amp;nbsp;* 3. If we cannot queue task, then we try to add a new&lt;/div&gt;&lt;div&gt;&amp;nbsp; &amp;nbsp; &amp;nbsp; &amp;nbsp; &amp;nbsp;* thread.&amp;nbsp; If it fails, we know we are shut down or saturated&lt;/div&gt;&lt;div&gt;&amp;nbsp; &amp;nbsp; &amp;nbsp; &amp;nbsp; &amp;nbsp;* and so reject the task.&lt;/div&gt;&lt;div&gt;&amp;nbsp; &amp;nbsp; &amp;nbsp; &amp;nbsp; &amp;nbsp;*/&lt;/div&gt;" style="rounded=1;whiteSpace=wrap;html=1;fontSize=19;verticalAlign=top;" parent="1" vertex="1">
                    <mxGeometry x="-400" y="1010" width="580" height="460" as="geometry"/>
                </mxCell>
            </root>
        </mxGraphModel>
    </diagram>
</mxfile>